<svg width="17" height="17" viewBox="0 0 17 17" fill="none" xmlns="http://www.w3.org/2000/svg">
<path fill-rule="evenodd" clip-rule="evenodd" d="M8.5 0C8.69317 0 8.8748 0.0919157 8.9892 0.247556L10.8601 2.79289L13.994 2.31411C14.185 2.28493 14.3785 2.34837 14.5151 2.48497C14.6516 2.62157 14.7151 2.81502 14.6859 3.00598L14.2071 6.13987L16.7524 8.0108C16.9081 8.1252 17 8.30683 17 8.5C17 8.69317 16.9081 8.8748 16.7524 8.9892L14.2071 10.8601L14.6859 13.994C14.7151 14.185 14.6516 14.3785 14.5151 14.5151C14.3785 14.6516 14.185 14.7151 13.994 14.6859L10.8601 14.2071L8.9892 16.7524C8.8748 16.9081 8.69317 17 8.5 17C8.30683 17 8.1252 16.9081 8.0108 16.7524L6.13987 14.2071L3.00598 14.6859C2.81502 14.7151 2.62157 14.6516 2.48497 14.5151C2.34837 14.3785 2.28493 14.185 2.31411 13.994L2.79289 10.8601L0.247556 8.9892C0.0919157 8.8748 0 8.69317 0 8.5C0 8.30683 0.0919157 8.1252 0.247558 8.0108L2.79289 6.13987L2.31411 3.00598C2.28493 2.81502 2.34837 2.62157 2.48497 2.48497C2.62157 2.34837 2.81502 2.28493 3.00598 2.31411L6.13987 2.79289L8.0108 0.247558C8.1252 0.0919157 8.30683 0 8.5 0ZM8.5 12.1429C10.5119 12.1429 12.1429 10.5119 12.1429 8.5C12.1429 6.48811 10.5119 4.85714 8.5 4.85714C6.48811 4.85714 4.85714 6.48811 4.85714 8.5C4.85714 10.5119 6.48811 12.1429 8.5 12.1429Z" fill="white"/>
</svg>
