<svg width="17" height="17" viewBox="0 0 17 17" fill="none" xmlns="http://www.w3.org/2000/svg">
<path fill-rule="evenodd" clip-rule="evenodd" d="M12.3496 10.7638C13.1664 9.64575 13.6481 8.27016 13.6481 6.78274C13.6481 3.03674 10.5929 0 6.82407 0C3.05524 0 0 3.03674 0 6.78274C0 10.5287 3.05524 13.5655 6.82407 13.5655C8.33863 13.5655 9.73794 13.0751 10.87 12.2453L15.4896 17L17 15.5502L12.3496 10.7638ZM6.82407 11.4108C4.25251 11.4108 2.16786 9.33872 2.16786 6.78274C2.16786 4.22676 4.25251 2.15473 6.82407 2.15473C9.39562 2.15473 11.4803 4.22676 11.4803 6.78274C11.4803 9.33872 9.39562 11.4108 6.82407 11.4108Z" fill="white"/>
</svg>
